<svg xmlns="http://www.w3.org/2000/svg" xmlns:se="http://svg-edit.googlecode.com" xmlns:xlink="http://www.w3.org/1999/xlink" xmlns:dc="http://purl.org/dc/elements/1.1/" xmlns:cc="http://creativecommons.org/ns#" xmlns:rdf="http://www.w3.org/1999/02/22-rdf-syntax-ns#" xmlns:inkscape="http://www.inkscape.org/namespaces/inkscape" width="185" height="186" style="">                                    <title>my vector image</title>                                    <!-- Created with Vector Paint - http://www.vectorpaint.yaks.com/ https://chrome.google.com/webstore/detail/hnbpdiengicdefcjecjbnjnoifekhgdo -->                                    <rect id="backgroundrect" width="100%" height="100%" x="0" y="0" fill="#FFFFFF" stroke="none"/>                                <g class="currentLayer" style=""><title>Layer 1</title><rect fill="none" stroke="#000000" style="color: rgb(0, 0, 0);" stroke-width="2" stroke-linejoin="round" stroke-dashoffset="" fill-rule="nonzero" id="svg_1" x="1" y="1" width="183" height="184" class=""/><path fill="#000000" fill-opacity="1" stroke="#000000" stroke-opacity="1" stroke-width="2" stroke-dasharray="none" stroke-linejoin="round" stroke-linecap="butt" stroke-dashoffset="" fill-rule="nonzero" opacity="1" marker-start="" marker-mid="" marker-end="" d="M30.814013957977295,143.02201461791992 C30.814013957977295,135.0109519958496 37.302966594696045,128.52201461791992 45.31401586532593,128.52201461791992 C53.32506322860718,128.52201461791992 59.81401205062866,135.0109519958496 59.81401205062866,143.02201461791992 C59.81401205062866,151.03306198120117 53.32506322860718,157.52201461791992 45.31401586532593,157.52201461791992 C37.302966594696045,157.52201461791992 30.814013957977295,151.03306198120117 30.814013957977295,143.02201461791992 z" id="svg_10" class=""/><path fill="#000000" fill-opacity="1" stroke="#000000" stroke-opacity="1" stroke-width="2" stroke-dasharray="none" stroke-linejoin="round" stroke-linecap="butt" stroke-dashoffset="" fill-rule="nonzero" opacity="1" marker-start="" marker-mid="" marker-end="" d="M31.28817653656006,43.3316855430603 C31.28817653656006,35.32062101364136 37.77712917327881,28.83168363571167 45.78817653656006,28.83168363571167 C53.79922389984131,28.83168363571167 60.28817653656006,35.32062101364136 60.28817653656006,43.3316855430603 C60.28817653656006,51.34273290634155 53.79922389984131,57.8316855430603 45.78817653656006,57.8316855430603 C37.77712917327881,57.8316855430603 31.28817653656006,51.34273290634155 31.28817653656006,43.3316855430603 z" class="" id="svg_4"/><path fill="#000000" fill-opacity="1" stroke="#000000" stroke-opacity="1" stroke-width="2" stroke-dasharray="none" stroke-linejoin="round" stroke-linecap="butt" stroke-dashoffset="" fill-rule="nonzero" opacity="1" marker-start="" marker-mid="" marker-end="" d="M31.28817653656006,43.3316855430603 C31.28817653656006,35.32062101364136 37.77712917327881,28.83168363571167 45.78817653656006,28.83168363571167 C53.79922389984131,28.83168363571167 60.28817653656006,35.32062101364136 60.28817653656006,43.3316855430603 C60.28817653656006,51.34273290634155 53.79922389984131,57.8316855430603 45.78817653656006,57.8316855430603 C37.77712917327881,57.8316855430603 31.28817653656006,51.34273290634155 31.28817653656006,43.3316855430603 z" class="" id="svg_12"/><path fill="#000000" fill-opacity="1" stroke="#000000" stroke-opacity="1" stroke-width="2" stroke-dasharray="none" stroke-linejoin="round" stroke-linecap="butt" stroke-dashoffset="" fill-rule="nonzero" opacity="1" marker-start="" marker-mid="" marker-end="" d="M77.99911499023438,92.99964904785156 C77.99911499023438,84.98858642578125 84.48806762695312,78.49964904785156 92.49911499023438,78.49964904785156 C100.51016235351562,78.49964904785156 106.99911499023438,84.98858642578125 106.99911499023438,92.99964904785156 C106.99911499023438,101.01069641113281 100.51016235351562,107.49964904785156 92.49911499023438,107.49964904785156 C84.48806762695312,107.49964904785156 77.99911499023438,101.01069641113281 77.99911499023438,92.99964904785156 z" class="" id="svg_14" transform="translate(45.5319, 46.8085)"/><path fill="#000000" fill-opacity="1" stroke="#000000" stroke-opacity="1" stroke-width="2" stroke-dasharray="none" stroke-linejoin="round" stroke-linecap="butt" stroke-dashoffset="" fill-rule="nonzero" opacity="1" marker-start="" marker-mid="" marker-end="" d="M96.70052337646484,92.99957656860352 C96.70052337646484,84.9885139465332 103.1894760131836,78.49957656860352 111.20052337646484,78.49957656860352 C119.2115707397461,78.49957656860352 125.70052337646484,84.9885139465332 125.70052337646484,92.99957656860352 C125.70052337646484,101.01062393188477 119.2115707397461,107.49959182739258 111.20052337646484,107.49959182739258 C103.1894760131836,107.49959182739258 96.70052337646484,101.01062393188477 96.70052337646484,92.99957656860352 z" class="" id="svg_5" transform="translate(-16.5957, -7.23404)"/><path fill="#000000" fill-opacity="1" stroke="#000000" stroke-opacity="1" stroke-width="2" stroke-dasharray="none" stroke-linejoin="round" stroke-linecap="butt" stroke-dashoffset="" fill-rule="nonzero" opacity="1" marker-start="" marker-mid="" marker-end="" d="M133.3052624464035,35.438752591609955 C133.3052624464035,27.427697598934174 139.79421508312225,20.938752591609955 147.8052624464035,20.938752591609955 C155.81630980968475,20.938752591609955 162.3052624464035,27.427697598934174 162.3052624464035,35.438752591609955 C162.3052624464035,43.449799954891205 155.81630980968475,49.938752591609955 147.8052624464035,49.938752591609955 C139.79421508312225,49.938752591609955 133.3052624464035,43.449799954891205 133.3052624464035,35.438752591609955 z" class="" id="svg_3" transform="translate(-7.23404, 6.80851)"/><rect fill="#000000" stroke="#000000" style="color: rgb(0, 0, 0);" stroke-width="2" stroke-linejoin="round" stroke-dashoffset="" fill-rule="nonzero" id="svg_7" x="-184" y="29" width="128" height="0"/><rect fill="#000000" stroke="#000000" style="color: rgb(0, 0, 0);" stroke-width="2" stroke-linejoin="round" stroke-dashoffset="" fill-rule="nonzero" id="svg_9" x="-193" y="27" width="43" height="0"/><rect fill="#000000" stroke="#000000" style="color: rgb(0, 0, 0);" stroke-width="2" stroke-linejoin="round" stroke-dashoffset="" fill-rule="nonzero" id="svg_13" x="-188" y="23" width="49" height="0"/></g></svg>