<svg width="180" height="53" viewBox="0 0 180 53" fill="none" xmlns="http://www.w3.org/2000/svg">
<g filter="url(#filter0_d)">
<path d="M23.7812 32.9766L12.7422 9.25781L11.6875 26.3438C11.6094 27.5 11.6016 28.2812 11.6641 28.6875C11.7734 29.5938 12.1406 30.2266 12.7656 30.5859C13.3281 30.9141 14.2812 31.0859 15.625 31.1016V32.9766H4.96094V31.1016C7.13281 31.0547 8.375 30.4297 8.6875 29.2266C8.82812 28.6328 8.94531 27.5625 9.03906 26.0156L10.0938 8.64844C10.1719 7.24219 10.0078 6.29688 9.60156 5.8125C9.19531 5.32812 8.28906 5.05469 6.88281 4.99219V3.11719H17.0078L26.3594 23.2734L35.3359 3.11719H45.6719V4.99219L43.7031 5.10938C42.8594 5.26562 42.375 5.60938 42.25 6.14062C42.1406 6.59375 42.125 7.42969 42.2031 8.64844L43.3516 26.3438C43.4297 27.6719 43.5 28.4688 43.5625 28.7344C43.7656 29.7344 44.1797 30.3594 44.8047 30.6094C45.3359 30.8438 46.2656 31.0078 47.5938 31.1016V32.9766H32.4531V31.1016H33.2734C34.6641 31.1016 35.6016 30.9297 36.0859 30.5859C36.6797 30.1641 36.9766 29.2969 36.9766 27.9844C36.9766 27.4531 36.9453 26.7031 36.8828 25.7344L35.6875 8.69531L24.9297 32.9766H23.7812ZM59.5703 32.5078L53.1016 19.2891C52.3516 17.7578 51.7969 16.7734 51.4375 16.3359C50.6562 15.3984 49.6875 14.9297 48.5312 14.9297V13.3828H60.7656V14.9297C59.5469 14.9297 58.7969 15.1562 58.5156 15.6094C58.2188 16.0938 58.3125 16.8281 58.7969 17.8125L62.7812 26.0625L66.4375 18.6797C66.7812 17.9766 66.9297 17.3438 66.8828 16.7812C66.7578 15.5781 65.7734 14.9609 63.9297 14.9297V13.3828H72.8594V14.9297C71.7188 15.1797 70.8594 15.6094 70.2812 16.2188C69.8594 16.6406 69.3438 17.4766 68.7344 18.7266L58 40.6172C56.8438 42.9766 55.3828 44.1562 53.6172 44.1562C52.7734 44.1562 52.0703 43.9141 51.5078 43.4297C50.8984 42.9141 50.5938 42.2422 50.5938 41.4141C50.5938 39.7734 51.4062 38.8203 53.0312 38.5547C53.7031 38.4297 54.3672 38.2969 55.0234 38.1562C55.6953 38.0312 56.2969 37.7422 56.8281 37.2891C57.4531 36.7422 58.0469 35.8516 58.6094 34.6172L59.5703 32.5078ZM103.375 24.6328L99.8594 32.9766H74.1484V31.1016H74.9453C76.8828 31.1016 78.0938 30.6094 78.5781 29.625C78.8125 29.1406 78.9297 28.4844 78.9297 27.6562V8.4375C78.9297 6.14062 77.6719 4.99219 75.1562 4.99219H74.2422V3.11719H90.5078V4.99219H89.125C86.75 4.99219 85.5625 6.10938 85.5625 8.34375V28.125C85.5625 29 85.7344 29.5859 86.0781 29.8828C86.4375 30.1797 87.0625 30.3281 87.9531 30.3281H94.0703C95.8516 30.3281 97.3281 29.6562 98.5 28.3125C99.0312 27.7031 100.016 26.4766 101.453 24.6328H103.375ZM104.594 23.4609C104.594 19.3047 106.562 16.2344 110.5 14.25C112.328 13.3281 114.375 12.8672 116.641 12.8672C119.938 12.8672 122.648 13.7969 124.773 15.6562C126.898 17.5156 127.961 19.9141 127.961 22.8516C127.961 27.0391 126 30.125 122.078 32.1094C120.25 33.0469 118.195 33.5156 115.914 33.5156C111.367 33.5156 108.078 31.8906 106.047 28.6406C105.078 27.1094 104.594 25.3828 104.594 23.4609ZM110.922 20.6484C110.922 23.1172 111.375 25.3828 112.281 27.4453C113.469 30.1016 115.133 31.4297 117.273 31.4297C120.18 31.4297 121.633 29.4531 121.633 25.5C121.633 22.375 121.055 19.8359 119.898 17.8828C118.742 15.9141 117.242 14.9297 115.398 14.9297C112.414 14.9297 110.922 16.8359 110.922 20.6484ZM144.438 31.4297V32.9766H131.102V31.4297H131.43C132.492 31.4297 133.227 31.125 133.633 30.5156C133.961 30.0312 134.125 29.2188 134.125 28.0781V20.25C134.125 19.2656 134.047 18.6016 133.891 18.2578C133.672 17.7578 133.172 17.3516 132.391 17.0391L131.102 16.5234V15.3047L138.977 12.3281H139.984L140.078 17.7188C140.688 16.5312 141.102 15.7578 141.32 15.3984C141.914 14.3516 142.422 13.6719 142.844 13.3594C143.266 13.0312 143.734 12.8672 144.25 12.8672C144.641 12.8672 144.961 12.9141 145.211 13.0078L149.008 14.3906C148.398 16.5 147.633 18.2031 146.711 19.5C144.633 18.6875 143.336 18.2812 142.82 18.2812C141.961 18.2812 141.016 19 139.984 20.4375V28.2188C139.984 29.4062 140.219 30.2422 140.688 30.7266C141.172 31.1953 142.008 31.4297 143.195 31.4297H144.438ZM166.656 33.5156V29.6719C163.75 32.2344 161.172 33.5156 158.922 33.5156C156.516 33.5156 154.586 32.5781 153.133 30.7031C151.805 28.9844 151.141 26.8906 151.141 24.4219C151.141 22.1406 151.664 20.0703 152.711 18.2109C153.82 16.2422 155.359 14.7891 157.328 13.8516C158.734 13.1953 160.398 12.8672 162.32 12.8672C163.836 12.8672 165.281 13.0781 166.656 13.5V7.33594C166.656 6.39844 166.336 5.69531 165.695 5.22656C165.258 4.89844 164.5 4.625 163.422 4.40625V3.25781L170.875 0.867188H172.492V26.6484C172.492 27.8359 172.555 28.625 172.68 29.0156C172.93 29.7969 173.508 30.1875 174.414 30.1875C174.836 30.1875 175.32 30.1094 175.867 29.9531V31.4297L167.898 33.5156H166.656ZM166.656 27.5156V16.8516C165.109 15.4766 163.57 14.7891 162.039 14.7891C160.242 14.7891 158.906 15.5625 158.031 17.1094C157.312 18.3594 156.953 19.9531 156.953 21.8906C156.953 23.9219 157.336 25.6719 158.102 27.1406C159.055 28.9844 160.461 29.9062 162.32 29.9062C163.836 29.9062 165.281 29.1094 166.656 27.5156Z" fill="white"/>
<path d="M23.7812 32.9766L12.7422 9.25781L11.6875 26.3438C11.6094 27.5 11.6016 28.2812 11.6641 28.6875C11.7734 29.5938 12.1406 30.2266 12.7656 30.5859C13.3281 30.9141 14.2812 31.0859 15.625 31.1016V32.9766H4.96094V31.1016C7.13281 31.0547 8.375 30.4297 8.6875 29.2266C8.82812 28.6328 8.94531 27.5625 9.03906 26.0156L10.0938 8.64844C10.1719 7.24219 10.0078 6.29688 9.60156 5.8125C9.19531 5.32812 8.28906 5.05469 6.88281 4.99219V3.11719H17.0078L26.3594 23.2734L35.3359 3.11719H45.6719V4.99219L43.7031 5.10938C42.8594 5.26562 42.375 5.60938 42.25 6.14062C42.1406 6.59375 42.125 7.42969 42.2031 8.64844L43.3516 26.3438C43.4297 27.6719 43.5 28.4688 43.5625 28.7344C43.7656 29.7344 44.1797 30.3594 44.8047 30.6094C45.3359 30.8438 46.2656 31.0078 47.5938 31.1016V32.9766H32.4531V31.1016H33.2734C34.6641 31.1016 35.6016 30.9297 36.0859 30.5859C36.6797 30.1641 36.9766 29.2969 36.9766 27.9844C36.9766 27.4531 36.9453 26.7031 36.8828 25.7344L35.6875 8.69531L24.9297 32.9766H23.7812ZM59.5703 32.5078L53.1016 19.2891C52.3516 17.7578 51.7969 16.7734 51.4375 16.3359C50.6562 15.3984 49.6875 14.9297 48.5312 14.9297V13.3828H60.7656V14.9297C59.5469 14.9297 58.7969 15.1562 58.5156 15.6094C58.2188 16.0938 58.3125 16.8281 58.7969 17.8125L62.7812 26.0625L66.4375 18.6797C66.7812 17.9766 66.9297 17.3438 66.8828 16.7812C66.7578 15.5781 65.7734 14.9609 63.9297 14.9297V13.3828H72.8594V14.9297C71.7188 15.1797 70.8594 15.6094 70.2812 16.2188C69.8594 16.6406 69.3438 17.4766 68.7344 18.7266L58 40.6172C56.8438 42.9766 55.3828 44.1562 53.6172 44.1562C52.7734 44.1562 52.0703 43.9141 51.5078 43.4297C50.8984 42.9141 50.5938 42.2422 50.5938 41.4141C50.5938 39.7734 51.4062 38.8203 53.0312 38.5547C53.7031 38.4297 54.3672 38.2969 55.0234 38.1562C55.6953 38.0312 56.2969 37.7422 56.8281 37.2891C57.4531 36.7422 58.0469 35.8516 58.6094 34.6172L59.5703 32.5078ZM103.375 24.6328L99.8594 32.9766H74.1484V31.1016H74.9453C76.8828 31.1016 78.0938 30.6094 78.5781 29.625C78.8125 29.1406 78.9297 28.4844 78.9297 27.6562V8.4375C78.9297 6.14062 77.6719 4.99219 75.1562 4.99219H74.2422V3.11719H90.5078V4.99219H89.125C86.75 4.99219 85.5625 6.10938 85.5625 8.34375V28.125C85.5625 29 85.7344 29.5859 86.0781 29.8828C86.4375 30.1797 87.0625 30.3281 87.9531 30.3281H94.0703C95.8516 30.3281 97.3281 29.6562 98.5 28.3125C99.0312 27.7031 100.016 26.4766 101.453 24.6328H103.375ZM104.594 23.4609C104.594 19.3047 106.562 16.2344 110.5 14.25C112.328 13.3281 114.375 12.8672 116.641 12.8672C119.938 12.8672 122.648 13.7969 124.773 15.6562C126.898 17.5156 127.961 19.9141 127.961 22.8516C127.961 27.0391 126 30.125 122.078 32.1094C120.25 33.0469 118.195 33.5156 115.914 33.5156C111.367 33.5156 108.078 31.8906 106.047 28.6406C105.078 27.1094 104.594 25.3828 104.594 23.4609ZM110.922 20.6484C110.922 23.1172 111.375 25.3828 112.281 27.4453C113.469 30.1016 115.133 31.4297 117.273 31.4297C120.18 31.4297 121.633 29.4531 121.633 25.5C121.633 22.375 121.055 19.8359 119.898 17.8828C118.742 15.9141 117.242 14.9297 115.398 14.9297C112.414 14.9297 110.922 16.8359 110.922 20.6484ZM144.438 31.4297V32.9766H131.102V31.4297H131.43C132.492 31.4297 133.227 31.125 133.633 30.5156C133.961 30.0312 134.125 29.2188 134.125 28.0781V20.25C134.125 19.2656 134.047 18.6016 133.891 18.2578C133.672 17.7578 133.172 17.3516 132.391 17.0391L131.102 16.5234V15.3047L138.977 12.3281H139.984L140.078 17.7188C140.688 16.5312 141.102 15.7578 141.32 15.3984C141.914 14.3516 142.422 13.6719 142.844 13.3594C143.266 13.0312 143.734 12.8672 144.25 12.8672C144.641 12.8672 144.961 12.9141 145.211 13.0078L149.008 14.3906C148.398 16.5 147.633 18.2031 146.711 19.5C144.633 18.6875 143.336 18.2812 142.82 18.2812C141.961 18.2812 141.016 19 139.984 20.4375V28.2188C139.984 29.4062 140.219 30.2422 140.688 30.7266C141.172 31.1953 142.008 31.4297 143.195 31.4297H144.438ZM166.656 33.5156V29.6719C163.75 32.2344 161.172 33.5156 158.922 33.5156C156.516 33.5156 154.586 32.5781 153.133 30.7031C151.805 28.9844 151.141 26.8906 151.141 24.4219C151.141 22.1406 151.664 20.0703 152.711 18.2109C153.82 16.2422 155.359 14.7891 157.328 13.8516C158.734 13.1953 160.398 12.8672 162.32 12.8672C163.836 12.8672 165.281 13.0781 166.656 13.5V7.33594C166.656 6.39844 166.336 5.69531 165.695 5.22656C165.258 4.89844 164.5 4.625 163.422 4.40625V3.25781L170.875 0.867188H172.492V26.6484C172.492 27.8359 172.555 28.625 172.68 29.0156C172.93 29.7969 173.508 30.1875 174.414 30.1875C174.836 30.1875 175.32 30.1094 175.867 29.9531V31.4297L167.898 33.5156H166.656ZM166.656 27.5156V16.8516C165.109 15.4766 163.57 14.7891 162.039 14.7891C160.242 14.7891 158.906 15.5625 158.031 17.1094C157.312 18.3594 156.953 19.9531 156.953 21.8906C156.953 23.9219 157.336 25.6719 158.102 27.1406C159.055 28.9844 160.461 29.9062 162.32 29.9062C163.836 29.9062 165.281 29.1094 166.656 27.5156Z" fill="url(#paint0_linear)"/>
</g>
<defs>
<filter id="filter0_d" x="0.960938" y="0.867188" width="178.906" height="51.2891" filterUnits="userSpaceOnUse" color-interpolation-filters="sRGB">
<feFlood flood-opacity="0" result="BackgroundImageFix"/>
<feColorMatrix in="SourceAlpha" type="matrix" values="0 0 0 0 0 0 0 0 0 0 0 0 0 0 0 0 0 0 127 0"/>
<feOffset dy="4"/>
<feGaussianBlur stdDeviation="2"/>
<feColorMatrix type="matrix" values="0 0 0 0 0 0 0 0 0 0 0 0 0 0 0 0 0 0 0.25 0"/>
<feBlend mode="normal" in2="BackgroundImageFix" result="effect1_dropShadow"/>
<feBlend mode="normal" in="SourceGraphic" in2="effect1_dropShadow" result="shape"/>
</filter>
<linearGradient id="paint0_linear" x1="91.5" y1="-13" x2="91.5" y2="78" gradientUnits="userSpaceOnUse">
<stop stop-color="white"/>
<stop offset="0.515625" stop-color="white" stop-opacity="0"/>
<stop offset="0.901042" stop-color="white" stop-opacity="0"/>
</linearGradient>
</defs>
</svg>
